HIERARCHY
ROOT Hips
{
	OFFSET -3.958830 18.904000 13.208200
	CHANNELS 6 Xposition Yposition Zposition Zrotation Yrotation Xrotation 
	JOINT LHipJoint
	{
		OFFSET 0.000000 0.000000 0.000000
		CHANNELS 3 Zrotation Yrotation Xrotation
		JOINT LeftUpLeg
		{
			OFFSET 1.800000 -1.400000 0.085000
			CHANNELS 3 Zrotation Yrotation Xrotation
			JOINT LeftLeg
			{
				OFFSET 2.215000 -6.000000 0.000000
				CHANNELS 3 Zrotation Yrotation Xrotation
				JOINT LeftFoot
				{
					OFFSET 2.500000 -6.900000 0.000000
					CHANNELS 3 Zrotation Yrotation Xrotation
					JOINT LeftToeBase
					{
						OFFSET 0.200000 -0.500000 1.950000
						CHANNELS 3 Zrotation Yrotation Xrotation
						End Site
						{
							OFFSET 0.000000 0.000000 0.000000
						}
					}
				}
			}
		}
	}
	JOINT RHipJoint
	{
		OFFSET 0.000000 0.000000 0.000000
		CHANNELS 3 Zrotation Yrotation Xrotation
		JOINT RightUpLeg
		{
			OFFSET -1.800000 -1.400000 0.085000
			CHANNELS 3 Zrotation Yrotation Xrotation
			JOINT RightLeg
			{
				OFFSET -2.215000 -6.000000 0.000000
				CHANNELS 3 Zrotation Yrotation Xrotation
				JOINT RightFoot
				{
					OFFSET -2.500000 -6.900000 0.000000
					CHANNELS 3 Zrotation Yrotation Xrotation
					JOINT RightToeBase
					{
						OFFSET -0.200000 -0.500000 1.950000
						CHANNELS 3 Zrotation Yrotation Xrotation
						End Site
						{
							OFFSET 0.000000 0.000000 0.000000
						}
					}
				}
			}
		}
	}
	JOINT LowerBack
	{
		OFFSET 0.000000 0.000000 0.000000
		CHANNELS 3 Zrotation Yrotation Xrotation
		JOINT Spine
		{
			OFFSET -0.087000 1.940000 -0.288900
			CHANNELS 3 Zrotation Yrotation Xrotation
			JOINT Spine1
			{
				OFFSET 0.000000 1.950000 0.060000
				CHANNELS 3 Zrotation Yrotation Xrotation
				JOINT Neck
				{
					OFFSET 0.000000 0.000000 0.000000
					CHANNELS 3 Zrotation Yrotation Xrotation
					JOINT Neck1
					{
						OFFSET 0.000000 1.600000 0.340000
						CHANNELS 3 Zrotation Yrotation Xrotation
						JOINT Head
						{
							OFFSET 0.000000 1.667000 -0.240000
							CHANNELS 3 Zrotation Yrotation Xrotation
							End Site
							{
								OFFSET 0.000000 0.000000 0.000000
							}
						}
					}
				}
				JOINT LeftShoulder
				{
					OFFSET 0.000000 0.000000 0.000000
					CHANNELS 3 Zrotation Yrotation Xrotation
					JOINT LeftArm
					{
						OFFSET 2.700000 1.550000 -0.730000
						CHANNELS 3 Zrotation Yrotation Xrotation
						JOINT LeftForeArm
						{
							OFFSET 5.450000 0.000000 0.000000
							CHANNELS 3 Zrotation Yrotation Xrotation
							JOINT LeftHand
							{
								OFFSET 3.450000 0.000000 0.000000
								CHANNELS 3 Zrotation Yrotation Xrotation
								JOINT LeftHandIndex1
								{
									OFFSET 0.750000 0.000000 0.000000
									CHANNELS 3 Zrotation Yrotation Xrotation
									End Site
									{
										OFFSET 0.000000 0.000000 0.000000
									}
								}
							}
						}
					}
				}
				JOINT RightShoulder
				{
					OFFSET 0.000000 0.000000 0.000000
					CHANNELS 3 Zrotation Yrotation Xrotation
					JOINT RightArm
					{
						OFFSET -2.700000 1.550000 -0.730000
						CHANNELS 3 Zrotation Yrotation Xrotation
						JOINT RightForeArm
						{
							OFFSET -5.450000 0.000000 0.000000
							CHANNELS 3 Zrotation Yrotation Xrotation
							JOINT RightHand
							{
								OFFSET -3.450000 0.000000 0.000000
								CHANNELS 3 Zrotation Yrotation Xrotation
								JOINT RightHandIndex1
								{
									OFFSET -0.750000 0.000000 0.000000
									CHANNELS 3 Zrotation Yrotation Xrotation
									End Site
									{
										OFFSET 0.000000 0.000000 0.000000
									}
								}
							}
						}
					}
				}
			}
		}
	}
}
MOTION
Frames: 10
Frame Time: 0.016667
0.286430 16.781900 -1.478580 -0.035080 -27.633549 3.127739 -15.499657 14.171255 3.126874 10.734301 -2.572267 -13.527244 -12.502384 8.969308 18.451076 0.020551 5.623159 2.732949 -0.024280 -0.235460 -0.076260 17.895069 -10.034510 2.249866 -14.360314 0.140561 -24.463377 1.153455 -3.255012 10.910297 0.311963 -2.386054 3.713147 -0.045660 0.432790 -0.013410 -2.235133 -4.816464 -6.881921 0.601815 -1.144000 4.704569 4.286453 -1.101099 -0.757495 -0.691645 -7.014287 -5.947444 -16.063187 9.782077 25.779929 -1.656690 7.579790 3.572010 -18.301308 2.678872 -2.108103 -65.161140 -15.025200 4.829469 -12.232313 -7.019886 0.321225 -4.082391 2.983826 0.094120 0.306320 -0.367090 0.125710 20.842582 0.687452 4.403008 60.434033 -13.007559 -11.888854 0.052067 6.115195 -0.886538 2.482676 -1.187876 -0.281370 0.162270 0.102950 -0.122100 
0.273330 16.765950 -1.464840 0.051691 -27.651866 3.140254 -15.493067 14.137696 3.117255 10.847911 -2.576259 -13.566587 -12.641103 9.101224 18.753005 0.037069 5.683547 2.713037 -0.029580 -0.239110 -0.097140 17.904105 -10.038076 2.253422 -14.640200 0.118587 -24.211376 1.574931 -3.329384 10.702990 0.310478 -2.427732 3.697266 -0.046890 0.446170 -0.013050 -2.270388 -4.744904 -6.858225 0.782577 -1.000035 4.525971 4.259545 -0.913952 -1.019922 -0.744613 -7.286011 -5.746233 -16.471395 9.812194 25.291218 -1.199110 7.096450 3.705580 -18.330308 3.830023 -2.258612 -66.596512 -14.334650 4.121943 -10.890121 -8.934487 0.189844 -4.082714 2.972712 0.086950 0.306030 -0.375280 0.132500 20.934261 -0.130950 4.160030 59.852572 -13.253440 -11.711430 0.012407 5.785652 -0.854066 2.491167 -1.185532 -0.279820 0.165090 0.109700 -0.110090 
0.244400 16.747110 -1.443350 0.046548 -27.983971 3.092072 -15.465007 14.064313 3.089430 11.122056 -2.557293 -13.522470 -12.781999 9.393023 19.551408 0.066617 5.825053 2.671738 -0.045370 -0.258180 -0.125080 17.932053 -10.089429 2.266779 -14.889745 0.130359 -23.799963 2.082659 -3.425538 10.463260 0.317652 -2.501758 3.680537 -0.054340 0.474130 -0.013140 -2.367750 -4.501302 -6.822904 1.317357 -0.612587 4.346594 3.920163 -0.451823 -1.585160 -0.726665 -7.595600 -5.287175 -16.820702 9.744078 24.768776 -1.017430 6.639220 4.339880 -19.621692 5.459817 -2.690474 -66.783939 -12.764445 2.521965 -10.206713 -12.235504 0.069818 -4.092432 2.954036 0.069750 0.320400 -0.398610 0.140870 22.065480 -1.289086 3.778947 58.386576 -13.844636 -11.276334 -0.446641 5.221602 -0.789954 2.498649 -1.192085 -0.284330 0.167360 0.119640 -0.097610 
0.201690 16.722340 -1.428490 0.055739 -28.242900 3.169111 -15.447286 13.962914 3.072413 11.586416 -2.611913 -13.805184 -13.073611 9.847325 20.718812 0.103635 6.051415 2.610007 -0.076310 -0.286240 -0.166260 17.958188 -10.136367 2.262315 -14.920465 0.199627 -23.468415 2.285624 -3.443587 10.298343 0.346077 -2.574856 3.677656 -0.055160 0.528380 -0.022140 -2.453142 -4.228275 -6.762537 1.452665 -0.235303 3.962037 3.842582 -0.053321 -1.865009 -0.846148 -7.647892 -4.765309 -16.406925 9.753985 23.785789 -1.056810 6.584840 5.438150 -20.852976 6.803353 -2.880974 -66.405289 -10.900982 0.612037 -10.682577 -16.365514 0.125279 -4.117900 2.949854 0.025600 0.362620 -0.448830 0.152530 23.428707 -2.288452 3.264140 56.817276 -14.081517 -10.683192 -1.214763 4.531946 -0.742781 2.499887 -1.220194 -0.303410 0.178570 0.133460 -0.084060 
0.152690 16.701280 -1.420330 0.118840 -28.657360 3.176256 -15.428264 13.918752 3.045564 11.804830 -2.579553 -13.967117 -12.873916 10.090853 21.677035 0.119479 6.168181 2.576448 -0.090000 -0.300010 -0.179150 17.975749 -10.203923 2.268673 -14.697634 0.320414 -23.343073 2.177168 -3.413800 10.382311 0.359144 -2.592172 3.682777 -0.057250 0.551470 -0.024400 -2.505416 -3.999914 -6.728585 1.359778 -0.068766 3.908671 3.672416 0.136604 -2.443080 -0.843492 -7.633494 -4.309957 -15.989920 9.965612 23.246418 -1.126040 6.838700 5.725090 -21.955981 8.149104 -2.897123 -65.127797 -8.332984 -1.593255 -12.440123 -20.872952 0.502325 -4.111785 2.954096 0.011920 0.380740 -0.466990 0.156400 24.484893 -3.334338 2.609025 55.538637 -13.825432 -10.198832 -2.521975 4.185346 -0.682739 2.508100 -1.237012 -0.313930 0.183820 0.137680 -0.080420 
0.104720 16.683070 -1.420370 -0.076008 -29.103321 3.245431 -15.392711 13.919088 3.016624 12.056921 -2.533926 -14.201542 -12.247738 10.224959 22.803055 0.121870 6.230742 2.542707 -0.082630 -0.285330 -0.176050 18.001402 -10.290120 2.279820 -14.183628 0.481312 -23.380570 1.997154 -3.412158 10.927401 0.357422 -2.576106 3.693632 -0.051340 0.544810 -0.027440 -2.584911 -3.811214 -6.711630 1.750455 -0.196304 4.246033 3.109417 0.053764 -3.339939 -0.763500 -7.802035 -3.844695 -16.059372 10.709956 22.856145 -1.083420 7.492800 5.201470 -22.946890 9.781814 -2.941745 -63.350973 -5.297268 -3.791719 -15.087471 -25.444604 1.268781 -4.080680 2.974795 0.017550 0.375340 -0.459020 0.157400 25.229815 -4.655976 1.786912 54.501547 -13.311830 -9.900779 -3.701988 4.113648 -0.649026 2.515241 -1.236965 -0.311990 0.187600 0.134810 -0.082540 
0.050020 16.674350 -1.428140 -0.067457 -29.604829 3.134153 -15.375611 13.978193 2.985673 12.025657 -2.422948 -14.143455 -11.463911 10.206320 23.575292 0.123635 6.215199 2.535700 -0.069120 -0.269690 -0.165320 18.001071 -10.353228 2.303260 -13.733352 0.629063 -23.315768 1.850211 -3.379295 11.293202 0.347211 -2.536709 3.705897 -0.051680 0.522790 -0.034530 -2.576760 -3.755700 -6.727048 1.502542 -0.594441 4.751793 3.023824 -0.285629 -4.566371 -0.851900 -8.073416 -3.452129 -16.532472 11.782472 22.846242 -0.553740 8.133100 4.638230 -23.805355 11.458869 -2.718554 -61.283922 -1.345860 -6.180440 -18.433204 -30.298356 2.463432 -4.017706 3.020564 0.039540 0.348140 -0.439370 0.155900 26.310934 -5.909775 0.951493 52.960948 -12.882280 -9.743586 -4.786198 4.801035 -0.685883 2.521660 -1.231914 -0.306220 0.186250 0.127430 -0.086310 
-0.004290 16.671270 -1.436540 -0.115913 -30.275980 3.047960 -15.353050 14.072697 2.939979 11.837972 -2.229935 -13.823121 -10.441168 9.965785 23.825982 0.120267 6.108586 2.576172 -0.075050 -0.279930 -0.176240 17.999745 -10.422490 2.339421 -13.200642 0.789973 -23.346308 1.562731 -3.319943 11.686148 0.346439 -2.494067 3.731740 -0.068150 0.521820 -0.038920 -2.564357 -3.736929 -6.753509 1.395618 -1.134171 5.279090 2.878180 -0.767911 -5.889586 -0.834409 -8.359712 -3.248624 -17.047478 12.995444 22.934300 0.055320 8.868770 4.859550 -24.802127 12.699807 -2.294254 -59.099376 3.193586 -8.596162 -21.590369 -34.768628 3.798163 -3.957490 3.080647 0.057490 0.333150 -0.431050 0.163090 27.376629 -6.814526 0.401683 51.386744 -13.028563 -9.999088 -5.071588 6.697046 -0.855335 2.505159 -1.229542 -0.306950 0.184400 0.126080 -0.083800 
-0.060580 16.667360 -1.444910 -0.369056 -30.910977 2.984785 -15.326323 14.159098 2.912080 11.981024 -2.027754 -13.509840 -9.709303 9.858940 24.119935 0.136109 6.048363 2.592039 -0.061010 -0.264260 -0.168610 18.003175 -10.473089 2.374828 -12.485287 0.970440 -23.073533 1.421311 -3.253208 11.881536 0.329239 -2.437643 3.756877 -0.078680 0.500590 -0.044250 -2.571523 -3.745747 -6.796975 1.561101 -1.758935 5.865364 2.787096 -1.342049 -6.853076 -0.829448 -8.700933 -3.344731 -17.731454 14.230869 23.164811 0.880400 9.496810 4.566190 -24.999358 13.587533 -1.645130 -57.828951 7.390260 -10.570718 -24.422725 -37.695018 4.943791 -3.883029 3.134038 0.083390 0.299170 -0.403990 0.169300 27.658015 -7.382644 0.033478 50.311576 -12.901725 -10.514894 -4.473513 9.381238 -1.062749 2.484562 -1.225214 -0.294070 0.180250 0.111300 -0.079390 
-0.124950 16.657800 -1.449110 -0.618810 -31.675505 3.049665 -15.308945 14.216098 2.856589 12.237101 -1.794411 -13.215740 -8.985058 9.768865 24.370057 0.146511 6.024857 2.606068 -0.066340 -0.265410 -0.186610 18.013603 -10.502528 2.398029 -11.733797 1.170105 -22.822110 1.302191 -3.179860 12.001026 0.331194 -2.416014 3.775474 -0.084390 0.517520 -0.042700 -2.595513 -3.733628 -6.769794 1.609260 -2.350569 5.877320 2.721019 -1.951692 -7.142170 -0.899502 -8.815492 -3.434298 -17.755616 15.495778 22.696765 1.623510 10.255900 4.898360 -24.559564 14.263978 -0.871867 -57.321345 11.154338 -12.250822 -26.730522 -39.204753 5.724885 -3.854958 3.182128 0.079080 0.301690 -0.407400 0.180140 27.436991 -7.946237 -0.380004 49.789440 -12.564010 -11.203374 -3.317795 12.632245 -1.264247 2.442146 -1.244135 -0.292460 0.179580 0.111160 -0.068200 
